<?xml version="1.0" encoding="UTF-8" standalone="no"?>
<!DOCTYPE svg PUBLIC "-//W3C//DTD SVG 1.1//EN"
 "http://www.w3.org/Graphics/SVG/1.1/DTD/svg11.dtd">
<!-- Generated by graphviz version 15.0.0 (20260523.1842)
 -->
<!-- Title: Barcelona Neighbourhood
Price&#45;Tier Pipeline Pages: 1 -->
<svg width="3041pt" height="3082pt"
 viewBox="0.00 0.00 3041.00 3082.00" xmlns="http://www.w3.org/2000/svg" xmlns:xlink="http://www.w3.org/1999/xlink">
<g id="graph0" class="graph" transform="scale(2.77778 2.77778) rotate(0) translate(50.4 1059.1)">
<title>Barcelona Neighbourhood
Price&#45;Tier Pipeline</title>
<polygon fill="white" stroke="none" points="-50.4,50.4 -50.4,-1059.1 1044.4,-1059.1 1044.4,50.4 -50.4,50.4"/>
<text xml:space="preserve" text-anchor="middle" x="799.62" y="-976.2" font-family="Helvetica,sans-Serif" font-weight="bold" font-size="30.00" fill="#2e3440">Barcelona Neighbourhood</text>
<text xml:space="preserve" text-anchor="middle" x="799.62" y="-945.45" font-family="Helvetica,sans-Serif" font-weight="bold" font-size="30.00" fill="#2e3440">Price&#45;Tier Pipeline</text>
<g id="clust1" class="cluster">
<title>cluster_SOURCES</title>
<path fill="#eef1f6" stroke="#c3ccda" d="M20,-710.6C20,-710.6 410,-710.6 410,-710.6 416,-710.6 422,-716.6 422,-722.6 422,-722.6 422,-919.2 422,-919.2 422,-925.2 416,-931.2 410,-931.2 410,-931.2 20,-931.2 20,-931.2 14,-931.2 8,-925.2 8,-919.2 8,-919.2 8,-722.6 8,-722.6 8,-716.6 14,-710.6 20,-710.6"/>
<text xml:space="preserve" text-anchor="middle" x="49.75" y="-913.9" font-family="Helvetica,sans-Serif" font-weight="bold" font-size="14.00" fill="#3b4252">SOURCES</text>
</g>
<g id="clust2" class="cluster">
<title>cluster_DATA LAKE</title>
<path fill="#e8f0f7" stroke="#c3ccda" d="M161,-437.2C161,-437.2 974,-437.2 974,-437.2 980,-437.2 986,-443.2 986,-449.2 986,-449.2 986,-674.6 986,-674.6 986,-680.6 980,-686.6 974,-686.6 974,-686.6 161,-686.6 161,-686.6 155,-686.6 149,-680.6 149,-674.6 149,-674.6 149,-449.2 149,-449.2 149,-443.2 155,-437.2 161,-437.2"/>
<text xml:space="preserve" text-anchor="middle" x="195.25" y="-669.3" font-family="Helvetica,sans-Serif" font-weight="bold" font-size="14.00" fill="#3b4252">DATA LAKE</text>
</g>
<g id="clust3" class="cluster">
<title>cluster_ORCHESTRATION</title>
<path fill="#fdf6e1" stroke="#c3ccda" d="M371,-163.8C371,-163.8 482,-163.8 482,-163.8 488,-163.8 494,-169.8 494,-175.8 494,-175.8 494,-401.2 494,-401.2 494,-407.2 488,-413.2 482,-413.2 482,-413.2 371,-413.2 371,-413.2 365,-413.2 359,-407.2 359,-401.2 359,-401.2 359,-175.8 359,-175.8 359,-169.8 365,-163.8 371,-163.8"/>
<text xml:space="preserve" text-anchor="middle" x="426.62" y="-395.9" font-family="Helvetica,sans-Serif" font-weight="bold" font-size="14.00" fill="#3b4252">ORCHESTRATION</text>
</g>
<g id="clust4" class="cluster">
<title>cluster_DATA ANALYSIS</title>
<path fill="#fbf1e7" stroke="#c3ccda" d="M654,-163.8C654,-163.8 903,-163.8 903,-163.8 909,-163.8 915,-169.8 915,-175.8 915,-175.8 915,-401.2 915,-401.2 915,-407.2 909,-413.2 903,-413.2 903,-413.2 654,-413.2 654,-413.2 648,-413.2 642,-407.2 642,-401.2 642,-401.2 642,-175.8 642,-175.8 642,-169.8 648,-163.8 654,-163.8"/>
<text xml:space="preserve" text-anchor="middle" x="704" y="-395.9" font-family="Helvetica,sans-Serif" font-weight="bold" font-size="14.00" fill="#3b4252">DATA ANALYSIS</text>
</g>
<!-- 7e7cd8607a264f278c00477ef0b4f653 -->
<g id="node1" class="node">
<title>7e7cd8607a264f278c00477ef0b4f653</title>
<image xlink:href="/Users/anabelpichardo/Library/CloudStorage/GoogleDrive-apichardo0597@gmail.com/My Drive/BSE/Big Data/Homework_Labs/Lab3-BigDataArchitectures/lab3-data-engineering/.venv/lib/python3.12/site-packages/resources/programming/flowchart/document.png" width="100.8px" height="100.8px" preserveAspectRatio="xMinYMin meet" x="23.6" y="-859.8"/>
<text xml:space="preserve" text-anchor="middle" x="74" y="-740.15" font-family="Helvetica,sans-Serif" font-size="11.00" fill="#2e3440">Income</text>
<text xml:space="preserve" text-anchor="middle" x="74" y="-728.15" font-family="Helvetica,sans-Serif" font-size="11.00" fill="#2e3440">(CSV)</text>
</g>
<!-- 19e8ad0c51a145d3b061365bab63b837 -->
<g id="node4" class="node">
<title>19e8ad0c51a145d3b061365bab63b837</title>
<image xlink:href="/Users/anabelpichardo/Library/CloudStorage/GoogleDrive-apichardo0597@gmail.com/My Drive/BSE/Big Data/Homework_Labs/Lab3-BigDataArchitectures/lab3-data-engineering/.venv/lib/python3.12/site-packages/resources/onprem/analytics/spark.png" width="100.8px" height="100.8px" preserveAspectRatio="xMinYMin meet" x="164.6" y="-600.8"/>
<text xml:space="preserve" text-anchor="middle" x="215" y="-483.55" font-family="Helvetica,sans-Serif" font-size="11.00" fill="#2e3440">Ingest</text>
</g>
<!-- 7e7cd8607a264f278c00477ef0b4f653&#45;&gt;19e8ad0c51a145d3b061365bab63b837 -->
<g id="edge7" class="edge">
<title>7e7cd8607a264f278c00477ef0b4f653&#45;&gt;19e8ad0c51a145d3b061365bab63b837</title>
<path fill="none" stroke="#4c566a" stroke-width="1.8" d="M118.81,-726.73C135.83,-695.71 155.16,-660.46 172.01,-629.75"/>
<polygon fill="#4c566a" stroke="#4c566a" stroke-width="1.8" points="175.05,-631.5 176.79,-621.05 168.91,-628.13 175.05,-631.5"/>
</g>
<!-- c70c4322a42a45b49f45c7a1a98c10a0 -->
<g id="node2" class="node">
<title>c70c4322a42a45b49f45c7a1a98c10a0</title>
<image xlink:href="/Users/anabelpichardo/Library/CloudStorage/GoogleDrive-apichardo0597@gmail.com/My Drive/BSE/Big Data/Homework_Labs/Lab3-BigDataArchitectures/lab3-data-engineering/.venv/lib/python3.12/site-packages/resources/programming/flowchart/document.png" width="100.8px" height="100.8px" preserveAspectRatio="xMinYMin meet" x="164.6" y="-859.8"/>
<text xml:space="preserve" text-anchor="middle" x="215" y="-740.15" font-family="Helvetica,sans-Serif" font-size="11.00" fill="#2e3440">Density</text>
<text xml:space="preserve" text-anchor="middle" x="215" y="-728.15" font-family="Helvetica,sans-Serif" font-size="11.00" fill="#2e3440">(JSON)</text>
</g>
<!-- c70c4322a42a45b49f45c7a1a98c10a0&#45;&gt;19e8ad0c51a145d3b061365bab63b837 -->
<g id="edge8" class="edge">
<title>c70c4322a42a45b49f45c7a1a98c10a0&#45;&gt;19e8ad0c51a145d3b061365bab63b837</title>
<path fill="none" stroke="#4c566a" stroke-width="1.8" d="M215,-726.73C215,-696.25 215,-661.7 215,-631.37"/>
<polygon fill="#4c566a" stroke="#4c566a" stroke-width="1.8" points="218.5,-631.38 215,-621.38 211.5,-631.38 218.5,-631.38"/>
</g>
<!-- 456e3c42380b48eab883955a85e6ae03 -->
<g id="node3" class="node">
<title>456e3c42380b48eab883955a85e6ae03</title>
<image xlink:href="/Users/anabelpichardo/Library/CloudStorage/GoogleDrive-apichardo0597@gmail.com/My Drive/BSE/Big Data/Homework_Labs/Lab3-BigDataArchitectures/lab3-data-engineering/.venv/lib/python3.12/site-packages/resources/programming/flowchart/document.png" width="100.8px" height="100.8px" preserveAspectRatio="xMinYMin meet" x="305.6" y="-859.8"/>
<text xml:space="preserve" text-anchor="middle" x="356" y="-740.15" font-family="Helvetica,sans-Serif" font-size="11.00" fill="#2e3440">Price</text>
<text xml:space="preserve" text-anchor="middle" x="356" y="-728.15" font-family="Helvetica,sans-Serif" font-size="11.00" fill="#2e3440">(JSON)</text>
</g>
<!-- 456e3c42380b48eab883955a85e6ae03&#45;&gt;19e8ad0c51a145d3b061365bab63b837 -->
<g id="edge9" class="edge">
<title>456e3c42380b48eab883955a85e6ae03&#45;&gt;19e8ad0c51a145d3b061365bab63b837</title>
<path fill="none" stroke="#4c566a" stroke-width="1.8" d="M308.5,-726.74C300.89,-713.38 293.17,-699.64 286,-686.6 275.96,-668.33 265.39,-648.53 255.56,-629.86"/>
<polygon fill="#4c566a" stroke="#4c566a" stroke-width="1.8" points="258.72,-628.36 250.98,-621.13 252.52,-631.61 258.72,-628.36"/>
</g>
<!-- 40d2a7648a0540c0a091e586f11b5b74 -->
<g id="node5" class="node">
<title>40d2a7648a0540c0a091e586f11b5b74</title>
<image xlink:href="/Users/anabelpichardo/Library/CloudStorage/GoogleDrive-apichardo0597@gmail.com/My Drive/BSE/Big Data/Homework_Labs/Lab3-BigDataArchitectures/lab3-data-engineering/.venv/lib/python3.12/site-packages/resources/generic/storage/storage.png" width="100.8px" height="100.8px" preserveAspectRatio="xMinYMin meet" x="305.6" y="-600.8"/>
<text xml:space="preserve" text-anchor="middle" x="356" y="-481.15" font-family="Helvetica,sans-Serif" font-size="11.00" fill="#2e3440">Landing</text>
<text xml:space="preserve" text-anchor="middle" x="356" y="-469.15" font-family="Helvetica,sans-Serif" font-size="11.00" fill="#2e3440">raw · Parquet</text>
</g>
<!-- 19e8ad0c51a145d3b061365bab63b837&#45;&gt;40d2a7648a0540c0a091e586f11b5b74 -->
<g id="edge1" class="edge">
<title>19e8ad0c51a145d3b061365bab63b837&#45;&gt;40d2a7648a0540c0a091e586f11b5b74</title>
<path fill="none" stroke="#4c566a" stroke-width="1.8" d="M265.4,-550.4C274.64,-550.4 283.89,-550.4 293.13,-550.4"/>
<polygon fill="#4c566a" stroke="#4c566a" stroke-width="1.8" points="293.02,-553.9 303.02,-550.4 293.02,-546.9 293.02,-553.9"/>
</g>
<!-- eb46c4d16d034a7e91ad7e52ec7a3ff6 -->
<g id="node6" class="node">
<title>eb46c4d16d034a7e91ad7e52ec7a3ff6</title>
<image xlink:href="/Users/anabelpichardo/Library/CloudStorage/GoogleDrive-apichardo0597@gmail.com/My Drive/BSE/Big Data/Homework_Labs/Lab3-BigDataArchitectures/lab3-data-engineering/.venv/lib/python3.12/site-packages/resources/onprem/analytics/spark.png" width="100.8px" height="100.8px" preserveAspectRatio="xMinYMin meet" x="446.6" y="-600.8"/>
<text xml:space="preserve" text-anchor="middle" x="497" y="-483.55" font-family="Helvetica,sans-Serif" font-size="11.00" fill="#2e3440">Format</text>
</g>
<!-- 40d2a7648a0540c0a091e586f11b5b74&#45;&gt;eb46c4d16d034a7e91ad7e52ec7a3ff6 -->
<g id="edge2" class="edge">
<title>40d2a7648a0540c0a091e586f11b5b74&#45;&gt;eb46c4d16d034a7e91ad7e52ec7a3ff6</title>
<path fill="none" stroke="#4c566a" stroke-width="1.8" d="M406.4,-550.4C415.64,-550.4 424.89,-550.4 434.13,-550.4"/>
<polygon fill="#4c566a" stroke="#4c566a" stroke-width="1.8" points="434.02,-553.9 444.02,-550.4 434.02,-546.9 434.02,-553.9"/>
</g>
<!-- 05de3e0913c34fee954df570cb215a93 -->
<g id="node10" class="node">
<title>05de3e0913c34fee954df570cb215a93</title>
<image xlink:href="/Users/anabelpichardo/Library/CloudStorage/GoogleDrive-apichardo0597@gmail.com/My Drive/BSE/Big Data/Homework_Labs/Lab3-BigDataArchitectures/lab3-data-engineering/.venv/lib/python3.12/site-packages/resources/onprem/workflow/airflow.png" width="100.8px" height="100.8px" preserveAspectRatio="xMinYMin meet" x="375.6" y="-327.4"/>
<text xml:space="preserve" text-anchor="middle" x="426" y="-205.35" font-family="Helvetica,sans-Serif" font-size="11.00" fill="#2e3440">Airflow DAG</text>
<text xml:space="preserve" text-anchor="middle" x="426" y="-193.35" font-family="Helvetica,sans-Serif" font-size="11.00" fill="#2e3440">schedule · dependencies</text>
<text xml:space="preserve" text-anchor="middle" x="426" y="-181.35" font-family="Helvetica,sans-Serif" font-size="11.00" fill="#2e3440">retries · alerts</text>
</g>
<!-- 40d2a7648a0540c0a091e586f11b5b74&#45;&gt;05de3e0913c34fee954df570cb215a93 -->
<!-- 8d986e3527774fc19767423362456fdd -->
<g id="node7" class="node">
<title>8d986e3527774fc19767423362456fdd</title>
<image xlink:href="/Users/anabelpichardo/Library/CloudStorage/GoogleDrive-apichardo0597@gmail.com/My Drive/BSE/Big Data/Homework_Labs/Lab3-BigDataArchitectures/lab3-data-engineering/.venv/lib/python3.12/site-packages/resources/generic/storage/storage.png" width="100.8px" height="100.8px" preserveAspectRatio="xMinYMin meet" x="587.6" y="-600.8"/>
<text xml:space="preserve" text-anchor="middle" x="638" y="-478.75" font-family="Helvetica,sans-Serif" font-size="11.00" fill="#2e3440">Formatted</text>
<text xml:space="preserve" text-anchor="middle" x="638" y="-466.75" font-family="Helvetica,sans-Serif" font-size="11.00" fill="#2e3440">clean · typed</text>
<text xml:space="preserve" text-anchor="middle" x="638" y="-454.75" font-family="Helvetica,sans-Serif" font-size="11.00" fill="#2e3440">partitioned by year</text>
</g>
<!-- eb46c4d16d034a7e91ad7e52ec7a3ff6&#45;&gt;8d986e3527774fc19767423362456fdd -->
<g id="edge3" class="edge">
<title>eb46c4d16d034a7e91ad7e52ec7a3ff6&#45;&gt;8d986e3527774fc19767423362456fdd</title>
<path fill="none" stroke="#4c566a" stroke-width="1.8" d="M547.4,-550.4C556.64,-550.4 565.89,-550.4 575.13,-550.4"/>
<polygon fill="#4c566a" stroke="#4c566a" stroke-width="1.8" points="575.02,-553.9 585.02,-550.4 575.02,-546.9 575.02,-553.9"/>
</g>
<!-- 934ecbca2e664961995fd937b4fea595 -->
<g id="node8" class="node">
<title>934ecbca2e664961995fd937b4fea595</title>
<image xlink:href="/Users/anabelpichardo/Library/CloudStorage/GoogleDrive-apichardo0597@gmail.com/My Drive/BSE/Big Data/Homework_Labs/Lab3-BigDataArchitectures/lab3-data-engineering/.venv/lib/python3.12/site-packages/resources/onprem/analytics/spark.png" width="100.8px" height="100.8px" preserveAspectRatio="xMinYMin meet" x="728.6" y="-600.8"/>
<text xml:space="preserve" text-anchor="middle" x="779" y="-483.55" font-family="Helvetica,sans-Serif" font-size="11.00" fill="#2e3440">Exploit</text>
</g>
<!-- 8d986e3527774fc19767423362456fdd&#45;&gt;934ecbca2e664961995fd937b4fea595 -->
<g id="edge4" class="edge">
<title>8d986e3527774fc19767423362456fdd&#45;&gt;934ecbca2e664961995fd937b4fea595</title>
<path fill="none" stroke="#4c566a" stroke-width="1.8" d="M688.4,-550.4C697.64,-550.4 706.89,-550.4 716.13,-550.4"/>
<polygon fill="#4c566a" stroke="#4c566a" stroke-width="1.8" points="716.02,-553.9 726.02,-550.4 716.02,-546.9 716.02,-553.9"/>
</g>
<!-- 42ff5c644c04478d8f6aa77ab295d252 -->
<g id="node9" class="node">
<title>42ff5c644c04478d8f6aa77ab295d252</title>
<image xlink:href="/Users/anabelpichardo/Library/CloudStorage/GoogleDrive-apichardo0597@gmail.com/My Drive/BSE/Big Data/Homework_Labs/Lab3-BigDataArchitectures/lab3-data-engineering/.venv/lib/python3.12/site-packages/resources/generic/storage/storage.png" width="100.8px" height="100.8px" preserveAspectRatio="xMinYMin meet" x="869.6" y="-600.8"/>
<text xml:space="preserve" text-anchor="middle" x="920" y="-478.75" font-family="Helvetica,sans-Serif" font-size="11.00" fill="#2e3440">Exploitation</text>
<text xml:space="preserve" text-anchor="middle" x="920" y="-466.75" font-family="Helvetica,sans-Serif" font-size="11.00" fill="#2e3440">join · features + tier</text>
<text xml:space="preserve" text-anchor="middle" x="920" y="-454.75" font-family="Helvetica,sans-Serif" font-size="11.00" fill="#2e3440">quality&#45;gated · ML&#45;ready</text>
</g>
<!-- 934ecbca2e664961995fd937b4fea595&#45;&gt;42ff5c644c04478d8f6aa77ab295d252 -->
<g id="edge5" class="edge">
<title>934ecbca2e664961995fd937b4fea595&#45;&gt;42ff5c644c04478d8f6aa77ab295d252</title>
<path fill="none" stroke="#4c566a" stroke-width="1.8" d="M829.4,-550.4C838.64,-550.4 847.89,-550.4 857.13,-550.4"/>
<polygon fill="#4c566a" stroke="#4c566a" stroke-width="1.8" points="857.02,-553.9 867.02,-550.4 857.02,-546.9 857.02,-553.9"/>
</g>
<!-- e8673b2cd1d441d59e669aaedcdb5b84 -->
<g id="node11" class="node">
<title>e8673b2cd1d441d59e669aaedcdb5b84</title>
<image xlink:href="/Users/anabelpichardo/Library/CloudStorage/GoogleDrive-apichardo0597@gmail.com/My Drive/BSE/Big Data/Homework_Labs/Lab3-BigDataArchitectures/lab3-data-engineering/.venv/lib/python3.12/site-packages/resources/onprem/analytics/spark.png" width="100.8px" height="100.8px" preserveAspectRatio="xMinYMin meet" x="657.6" y="-327.4"/>
<text xml:space="preserve" text-anchor="middle" x="708" y="-205.35" font-family="Helvetica,sans-Serif" font-size="11.00" fill="#2e3440">spark.ml</text>
<text xml:space="preserve" text-anchor="middle" x="708" y="-193.35" font-family="Helvetica,sans-Serif" font-size="11.00" fill="#2e3440">LogReg + Random Forest</text>
<text xml:space="preserve" text-anchor="middle" x="708" y="-181.35" font-family="Helvetica,sans-Serif" font-size="11.00" fill="#2e3440">cross&#45;validated</text>
</g>
<!-- 42ff5c644c04478d8f6aa77ab295d252&#45;&gt;e8673b2cd1d441d59e669aaedcdb5b84 -->
<g id="edge10" class="edge">
<title>42ff5c644c04478d8f6aa77ab295d252&#45;&gt;e8673b2cd1d441d59e669aaedcdb5b84</title>
<path fill="none" stroke="#4c566a" stroke-width="1.8" d="M869.8,-457.58C863.45,-450.08 856.51,-443.13 849,-437.2 823.19,-416.82 803.97,-434.61 779,-413.2 769.39,-404.96 760.9,-395.09 753.44,-384.49"/>
<polygon fill="#4c566a" stroke="#4c566a" stroke-width="1.8" points="756.53,-382.82 748.1,-376.4 750.68,-386.68 756.53,-382.82"/>
</g>
<!-- 05de3e0913c34fee954df570cb215a93&#45;&gt;19e8ad0c51a145d3b061365bab63b837 -->
<g id="edge12" class="edge">
<title>05de3e0913c34fee954df570cb215a93&#45;&gt;19e8ad0c51a145d3b061365bab63b837</title>
<path fill="none" stroke="#c9a24b" stroke-width="1.5" stroke-dasharray="5,2" d="M375.86,-330.75C348.15,-360.93 313.8,-400.08 286,-437.2 277.74,-448.23 269.47,-460.22 261.64,-472.13"/>
<polygon fill="#c9a24b" stroke="#c9a24b" stroke-width="1.5" points="258.92,-469.89 256.41,-480.18 264.79,-473.7 258.92,-469.89"/>
</g>
<!-- 05de3e0913c34fee954df570cb215a93&#45;&gt;e8673b2cd1d441d59e669aaedcdb5b84 -->
<g id="edge13" class="edge">
<title>05de3e0913c34fee954df570cb215a93&#45;&gt;e8673b2cd1d441d59e669aaedcdb5b84</title>
<path fill="none" stroke="#c9a24b" stroke-width="1.5" stroke-dasharray="5,2" d="M476.4,-277C532.85,-277 589.29,-277 645.74,-277"/>
<polygon fill="#c9a24b" stroke="#c9a24b" stroke-width="1.5" points="645.52,-280.5 655.52,-277 645.52,-273.5 645.52,-280.5"/>
</g>
<!-- 9f1115749af74daebb6f437f7002a518 -->
<g id="node13" class="node">
<title>9f1115749af74daebb6f437f7002a518</title>
<text xml:space="preserve" text-anchor="start" x="353.88" y="-11.55" font-family="Helvetica,sans-Serif" font-weight="bold" font-size="11.00" fill="#2e3440">DATA GOVERNANCE</text>
<text xml:space="preserve" text-anchor="start" x="466.38" y="-11.55" font-family="Helvetica,sans-Serif" font-size="11.00" fill="#2e3440">     data contracts  ·  schema enforcement  ·  quality gates  ·  idempotent checkpoints  ·  run logs</text>
<polygon fill="none" stroke="black" points="343.88,1 343.88,-31 930.12,-31 930.12,1 343.88,1"/>
</g>
<!-- 05de3e0913c34fee954df570cb215a93&#45;&gt;9f1115749af74daebb6f437f7002a518 -->
<!-- 0f853e531ed548c788578c57c821e505 -->
<g id="node12" class="node">
<title>0f853e531ed548c788578c57c821e505</title>
<image xlink:href="/Users/anabelpichardo/Library/CloudStorage/GoogleDrive-apichardo0597@gmail.com/My Drive/BSE/Big Data/Homework_Labs/Lab3-BigDataArchitectures/lab3-data-engineering/.venv/lib/python3.12/site-packages/resources/onprem/mlops/mlflow.png" width="100.8px" height="36.1565px" preserveAspectRatio="xMinYMin meet" x="798.6" y="-295.078"/>
<text xml:space="preserve" text-anchor="middle" x="849" y="-207.6" font-family="Helvetica,sans-Serif" font-size="11.00" fill="#2e3440">MLflow</text>
<text xml:space="preserve" text-anchor="middle" x="849" y="-195.6" font-family="Helvetica,sans-Serif" font-size="11.00" fill="#2e3440">track · registry</text>
<text xml:space="preserve" text-anchor="middle" x="849" y="-183.6" font-family="Helvetica,sans-Serif" font-size="11.00" fill="#2e3440">best model → Production</text>
</g>
<!-- e8673b2cd1d441d59e669aaedcdb5b84&#45;&gt;0f853e531ed548c788578c57c821e505 -->
<g id="edge6" class="edge">
<title>e8673b2cd1d441d59e669aaedcdb5b84&#45;&gt;0f853e531ed548c788578c57c821e505</title>
<path fill="none" stroke="#4c566a" stroke-width="1.8" d="M758.4,-277C767.64,-277 776.89,-277 786.13,-277"/>
<polygon fill="#4c566a" stroke="#4c566a" stroke-width="1.8" points="786.02,-280.5 796.02,-277 786.02,-273.5 786.02,-280.5"/>
</g>
<!-- 0f853e531ed548c788578c57c821e505&#45;&gt;9f1115749af74daebb6f437f7002a518 -->
</g>
</svg>
